# AST/ASF file generated using VICON BodyLanguage
# -----------------------------------------------
:version 1.10
:name VICON
:units
  mass 1.0
  length 0.45
  angle deg
:documentation
   .ast/.asf automatically generated from VICON data using
   VICON BodyBuilder and BodyLanguage model FoxedUp or BRILLIANT.MOD
:root
   order TX TY TZ RX RY RZ
   axis XYZ
   position 0 0 0  
   orientation 0 0 0 
:bonedata
  begin
     id 1 
     name lhipjoint
     direction 0.567725 -0.736092 0.368589 
     length 2.42353 
     axis 0 0 0  XYZ
  end
  begin
     id 2 
     name lfemur
     direction 0.34202 -0.939693 0  
     length 7.24894  
     axis 0 0 20  XYZ
    dof rx ry rz
    limits (-160.0 20.0)
           (-70.0 70.0)
           (-60.0 70.0)
  end
  begin
     id 3 
     name ltibia
     direction 0.34202 -0.939693 0   
     length 7.6997   
     axis 0 0 20   XYZ
    dof rx
    limits (-10.0 170.0)
  end
  begin
     id 4 
     name lfoot
     direction 0.100767 -0.276854 0.955614   
     length 2.37556   
     axis -90 7.62852e-016 20   XYZ
    dof rx rz
    limits (-45.0 90.0)
           (-70.0 20.0)
  end
  begin
     id 5 
     name ltoes
     direction 1.53592e-011 -4.21894e-011 1   
     length 1.18363   
     axis -90 7.62852e-016 20   XYZ
    dof rx
    limits (-90.0 20.0)
  end
  begin
     id 6 
     name rhipjoint
     direction -0.556459 -0.742938 0.372017   
     length 2.4012  
     axis 0 0 0  XYZ 
  end
  begin
     id 7 
     name rfemur
     direction -0.34202 -0.939693 0   
     length 7.5119   
     axis 0 0 -20   XYZ
    dof rx ry rz
    limits (-160.0 20.0)
           (-70.0 70.0)
           (-70.0 60.0)
  end
  begin
     id 8 
     name rtibia
     direction -0.34202 -0.939693 0   
     length 7.50155   
     axis 0 0 -20   XYZ
    dof rx
    limits (-10.0 170.0)
 end
 begin
     id 9 
     name rfoot
     direction -0.118427 -0.325376 0.938139   
     length 2.32487  
     axis -90 -7.62852e-016 -20   XYZ
    dof rx rz
    limits (-45.0 90.0)
           (-20.0 70.0)
  end
  begin
     id 10 
     name rtoes
     direction -1.53525e-011 -4.21868e-011 1   
     length 1.15233   
     axis -90 -7.62852e-016 -20   XYZ
    dof rx
    limits (-90.0 20.0)
  end
  begin
     id 11 
     name lowerback
     direction 0.0287568 0.999577 -0.00434502   
     length 2.15243   
     axis 0 0 0   XYZ
    dof rx ry rz
    limits (-20.0 45.0)
           (-30.0 30.0)
           (-30.0 30.0)
  end
  begin
     id 12 
     name upperback
     direction 0.0294009 0.99956 0.00404628   
     length 2.15427   
     axis 0 0 0   XYZ
    dof rx ry rz
    limits (-20.0 45.0)
           (-30.0 30.0)
           (-30.0 30.0)
  end
  begin
     id 13 
     name thorax
     direction 0.0151014 0.999868 0.0059419   
     length 2.14898   
     axis 0 0 0   XYZ
    dof rx ry rz
    limits (-20.0 45.0)
           (-30.0 30.0)
           (-30.0 30.0)
  end
  begin
     id 14 
     name lowerneck
     direction -0.0249197 0.989906 0.139515   
     length 1.6861   
     axis 0 0 0   XYZ
    dof rx ry rz
    limits (-20.0 45.0)
           (-30.0 30.0)
           (-30.0 30.0)
  end
  begin
     id 15 
     name upperneck
     direction 0.0438463 0.988795 -0.142693   
     length 1.71276   
     axis 0 0 0   XYZ
    dof rx ry rz
    limits (-20.0 45.0)
           (-30.0 30.0)
           (-30.0 30.0)
  end
  begin
     id 16
     name head
     direction 0.0148499 0.997845 -0.0639186  
     length 1.7209  
     axis 0 0 0   XYZ
    dof rx ry rz
    limits (-20.0 45.0)
           (-30.0 30.0)
           (-30.0 30.0)
  end
  begin
     id 17 
     name lclavicle
     direction 0.940298 0.323464 -0.105876  
     length 3.9048  
     axis 0 0 0   XYZ
    dof ry rz
    limits (-20.0 10.0)
           (0.0 20.0)
  end
  begin
     id 18 
     name lhumerus
     direction 1 -4.48954e-011 -4.9675e-028   
     length 4.6851   
     axis 180 -30 -90   XYZ
    dof rx ry rz
    limits (-60.0 90.0)
           (-90.0 90.0)
           (-90.0 90.0)
  end
  begin
     id 19
     name lradius
     direction 1 -4.48992e-011 -1.03359e-026   
     length 3.39626   
     axis 180 -30 -90   XYZ
    dof rx
    limits (-10.0 170.0)
  end
  begin
     id 20
     name lwrist
     direction 1 -4.48906e-011 -1.67336e-026   
     length 1.69813   
     axis 9.90442e-015 90 90   XYZ
    dof ry
    limits (-180.0 0.0)
 end
  begin
     id 21 
     name lhand
     direction 1 -4.49006e-011 -3.34673e-026   
     length 0.486078   
     axis 2.1355e-014 90 90   XYZ
    dof rx rz
    limits (-90.0 90.0)
           (-45.0 45.0)
  end
  begin
     id 22 
     name lfingers
     direction 1 -4.48992e-011 -6.69345e-026   
     length 0.391889   
     axis 4.27099e-014 90 90   XYZ
    dof rx
    limits (0.0 90.0)
  end
  begin
     id 23
     name lthumb
     direction 0.707107 -6.34926e-011 0.707107   
     length 0.562676   
     axis -90 45 2.85299e-015   XYZ
    dof rx rz
    limits (-45.0 45.0)
           (-45.0 45.0)
  end
  begin
     id 24 
     name rclavicle
     direction -0.882459 0.414895 -0.221648   
     length 3.44646  
     axis 0 0 0   XYZ 
    dof ry rz
    limits (-10.0 20.0)
           (-20.0 0.0)
  end
  begin
     id 25 
     name rhumerus
     direction -1 -4.48962e-011 -2.37984e-027  
     length 5.55576   
     axis 180 30 90   XYZ
    dof rx ry rz
    limits (-90.0 60.0)
           (-90.0 90.0)
           (-90.0 90.0)
  end
  begin
     id 26 
     name rradius
     direction -1 -4.48982e-011 -6.86791e-027   
     length 3.32774   
     axis 180 30 90   XYZ
    dof rx
    limits (-10.0 170.0)
  end
  begin
     id 27 
     name rwrist
     direction -1 -4.48961e-011 -1.67336e-026   
     length 1.66387   
     axis 9.90442e-015 -90 -90   XYZ
    dof ry
    limits (-180.0 0.0)
  end
  begin
     id 28
     name rhand
     direction -1 -4.4897e-011 -3.34673e-026   
     length 0.507628   
     axis 2.1355e-014 -90 -90   XYZ
    dof rx rz
    limits (-90.0 90.0)
           (-45.0 45.0)
  end
  begin
     id 29
     name rfingers
     direction -1 -4.48854e-011 -6.69345e-026   
     length 0.409263   
     axis 4.27099e-014 -90 -90   XYZ
    dof rx
    limits (0.0 90.0)
  end
  begin
     id 30
     name rthumb
     direction -0.707107 -6.34913e-011 0.707107   
     length 0.587622   
     axis -90 -45 -2.85299e-015   XYZ
    dof rx rz
    limits (-45.0 45.0)
           (-45.0 45.0)
  end
:hierarchy
  begin
    root lhipjoint rhipjoint lowerback
    lhipjoint lfemur
    lfemur ltibia
    ltibia lfoot
    lfoot ltoes
    rhipjoint rfemur
    rfemur rtibia
    rtibia rfoot
    rfoot rtoes
    lowerback upperback
    upperback thorax
    thorax lowerneck lclavicle rclavicle
    lowerneck upperneck
    upperneck head
    lclavicle lhumerus
    lhumerus lradius
    lradius lwrist
    lwrist lhand lthumb
    lhand lfingers
    rclavicle rhumerus
    rhumerus rradius
    rradius rwrist
    rwrist rhand rthumb
    rhand rfingers
  end

#!OML:ASF E:\motion texture\Top Level 1\Subject 1\Session 1\male.ASF
:FULLY-SPECIFIED
:DEGREES
83
root 38.7865 17.6049 5.44577 133.001 -79.3106 -121.407
lowerback -2.98077 -0.904659 7.11172
upperback -1.96157 -1.48634 3.29772
thorax -0.441335 -0.839034 -0.619796
lowerneck -17.2821 -7.41875 -9.95911
upperneck 11.5661 -9.0366 8.70596
head 7.22689 -4.06178 3.39143
rclavicle 2.42711e-014 -4.02415e-014
rhumerus -32.3031 -1.57413 -82.3656
rradius 29.768
rwrist 10.4823
rhand -12.8109 -25.8922
rfingers 7.12502
rthumb 13.2755 -55.4494
lclavicle 2.42711e-014 -4.02415e-014
lhumerus -35.8205 6.10504 83.1583
lradius 34.3913
lwrist -12.5726
lhand -13.3767 20.9281
lfingers 7.12502
lthumb 12.73 50.52
rfemur -9.86563 1.30842 33.1507
rtibia 18.1571
rfoot -18.696 -10.0749
rtoes -3.90416
lfemur -33.601 4.98956 -8.643
ltibia 43.363
lfoot -15.2712 7.38839
ltoes -10.715
84
root 38.7259 17.6002 5.43396 133.528 -79.2052 -121.925
lowerback -2.96493 -0.861995 7.18544
upperback -1.92135 -1.43172 3.27976
thorax -0.407676 -0.810566 -0.678182
lowerneck -17.2903 -7.41617 -9.9472
upperneck 11.4373 -9.02884 8.72354
head 7.18592 -4.05667 3.39657
rclavicle -6.85652e-015 1.6027e-015
rhumerus -32.3265 -1.03422 -82.6495
rradius 30.3562
rwrist 10.2873
rhand -12.8932 -25.8878
rfingers 7.12502
rthumb 13.1961 -55.4502
lclavicle -6.85652e-015 1.6027e-015
lhumerus -35.913 5.66335 83.449
lradius 35.1938
lwrist -12.0605
lhand -13.496 20.973
lfingers 7.12502
lthumb 12.6151 50.572
rfemur -9.52807 1.41153 33.204
rtibia 17.9396
rfoot -18.6741 -10.0482
rtoes -3.77496
lfemur -34.1437 5.14703 -8.59831
ltibia 43.1236
lfoot -14.9264 7.4036
ltoes -10.7961
85
root 38.6632 17.5955 5.42248 134.11 -79.0984 -122.495
lowerback -2.94246 -0.818438 7.25016
upperback -1.89033 -1.37448 3.26135
thorax -0.38667 -0.78124 -0.731707
lowerneck -17.2995 -7.41287 -9.93665
upperneck 11.3179 -9.01953 8.73626
head 7.14789 -4.05123 3.40048
rclavicle 9.60437e-015 3.03566e-014
rhumerus -32.3553 -0.47281 -82.9407
rradius 30.9772
rwrist 10.0966
rhand -12.9772 -25.8737
rfingers 7.12502
rthumb 13.1152 -55.4413
lclavicle 9.60437e-015 3.03566e-014
lhumerus -36.012 5.2191 83.7426
lradius 36.0124
lwrist -11.5622
lhand -13.6159 21.0228
lfingers 7.12502
lthumb 12.4994 50.629
rfemur -9.18632 1.5272 33.2486
rtibia 17.7184
rfoot -18.6439 -10.0203
rtoes -3.60924
lfemur -34.6544 5.29047 -8.54938
ltibia 42.7677
lfoot -14.5517 7.41746
ltoes -10.8538
86
root 38.5984 17.5905 5.41134 134.743 -78.9915 -123.111
lowerback -2.92992 -0.77415 7.30938
upperback -1.85799 -1.31708 3.23868
thorax -0.35852 -0.75148 -0.786786
lowerneck -17.3122 -7.40771 -9.92581
upperneck 11.1971 -9.00782 8.7515
head 7.10988 -4.04437 3.40542
rclavicle 1.0461e-014 3.20975e-014
rhumerus -32.3732 0.102873 -83.2431
rradius 31.629
rwrist 9.9143
rhand -13.0703 -25.8554
rfingers 7.12502
rthumb 13.0254 -55.4287
lclavicle 1.0461e-014 3.20975e-014
lhumerus -36.1001 4.77124 84.0346
lradius 36.8426
lwrist -11.0774
lhand -13.7356 21.0663
lfingers 7.12502
lthumb 12.384 50.6794
rfemur -8.84065 1.65406 33.2836
rtibia 17.4952
rfoot -18.6072 -9.99016
rtoes -3.40623
lfemur -35.132 5.41822 -8.49619
ltibia 42.2981
lfoot -14.1513 7.42836
ltoes -10.89
87
root 38.5315 17.5852 5.40048 135.421 -78.8834 -123.77
lowerback -2.9196 -0.730159 7.3621
upperback -1.82966 -1.25984 3.21358
thorax -0.333008 -0.721864 -0.84075
lowerneck -17.3227 -7.40022 -9.91599
upperneck 11.078 -8.99302 8.76637
head 7.07182 -4.0362 3.41087
rclavicle 1.7097e-014 2.06798e-014
rhumerus -32.3881 0.695959 -83.5546
rradius 32.312
rwrist 9.74241
rhand -13.1647 -25.8268
rfingers 7.12502
rthumb 12.9344 -55.4059
lclavicle 1.7097e-014 2.06798e-014
lhumerus -36.1855 4.32145 84.3263
lradius 37.6861
lwrist -10.6082
lhand -13.8514 21.1264
lfingers 7.12502
lthumb 12.2724 50.7463
rfemur -8.49071 1.79336 33.3103
rtibia 17.2705
rfoot -18.5653 -9.95901
rtoes -3.17053
lfemur -35.5755 5.53058 -8.43613
ltibia 41.7183
lfoot -13.7285 7.43585
ltoes -10.9008
88
root 38.4625 17.5796 5.38994 136.139 -78.7739 -124.467
lowerback -2.91105 -0.686832 7.4072
upperback -1.80627 -1.20315 3.18755
thorax -0.311365 -0.692665 -0.891432
lowerneck -17.3319 -7.38947 -9.90707
upperneck 10.963 -8.97348 8.77825
head 7.03435 -4.02607 3.41612
rclavicle 4.5736e-015 -1.67228e-014
rhumerus -32.4006 1.30628 -83.8723
rradius 33.0257
rwrist 9.58381
rhand -13.2652 -25.7971
rfingers 7.12502
rthumb 12.8375 -55.3824
lclavicle 4.5736e-015 -1.67228e-014
lhumerus -36.2689 3.87074 84.6187
lradius 38.5408
lwrist -10.1561
lhand -13.9561 21.2013
lfingers 7.12502
lthumb 12.1715 50.8272
rfemur -8.13655 1.94327 33.3289
rtibia 17.0444
rfoot -18.5191 -9.92555
rtoes -2.90382
lfemur -35.9853 5.62601 -8.36833
ltibia 41.0349
lfoot -13.2895 7.43896
ltoes -10.8896
